<svg width="53" height="40" viewBox="0 0 53 40" fill="none" xmlns="http://www.w3.org/2000/svg">
<path d="M49.0609 40C47.9759 40 47.0935 39.0817 47.0935 37.9531V1.53848C47.0935 1.00639 47.5045 0 49.0609 0C51.53 0 52.2971 9.12131 52.2971 12.4439C52.2971 17.598 51.2014 22.3303 51.0282 23.0456V37.9529C51.0282 39.0816 50.1458 40 49.0609 40ZM48.4035 23.6418V37.9531C48.4035 38.3301 48.6982 38.6371 49.0609 38.6371C49.4235 38.6371 49.7182 38.3304 49.7182 37.9531V23.6418H48.4035ZM48.4035 22.2788H49.8571C50.1681 20.8726 50.9871 16.7573 50.9871 12.4442C50.9871 6.75362 49.7017 1.85196 49.01 1.36375C48.606 1.37275 48.4289 1.48942 48.4037 1.57392V22.2788H48.4035ZM4.35769 40C3.86774 40 3.39613 39.7999 3.06391 39.451C2.75867 39.1302 2.59256 38.712 2.59675 38.274L2.80793 15.9804C1.20078 15.3352 0.0372154 13.7215 0.000272622 11.8363C-0.00025139 11.8194 1.0616e-05 11.8022 0.000796633 11.785L0.450137 1.50741C0.466643 1.13178 0.780002 0.847474 1.13397 0.857559C1.49554 0.874732 1.7751 1.19339 1.75859 1.56928L1.34043 11.1344H2.48304L2.69317 1.52294C2.70129 1.1465 3.00967 0.846928 3.36285 0.857014C3.72468 0.865737 4.01106 1.17758 4.00267 1.55375L3.79385 11.1346H4.92205L4.71271 1.55402C4.70459 1.17785 4.99096 0.86601 5.35253 0.857287C5.70833 0.845838 6.01409 1.14677 6.02221 1.52322L6.23234 11.1346H7.37495L6.95705 1.56956C6.94054 1.19366 7.2201 0.875005 7.58167 0.857832C7.93983 0.843657 8.24952 1.13178 8.26551 1.50768L8.71458 11.785C8.71537 11.8022 8.71563 11.8194 8.71511 11.8363C8.67817 13.7212 7.5146 15.3352 5.90745 15.9804L6.11889 38.274C6.12308 38.712 5.95697 39.1302 5.65174 39.451C5.31925 39.7999 4.84764 40 4.35769 40ZM4.11507 16.2805L3.90678 38.2871C3.90599 38.3789 3.9542 38.4493 3.99481 38.4918C4.17036 38.6763 4.54476 38.676 4.72083 38.4918C4.76144 38.449 4.80965 38.3786 4.80886 38.2871L4.60031 16.2805H4.11507ZM1.39729 12.4976C1.72637 13.8818 2.93736 14.9176 4.35769 14.9176C5.77829 14.9176 6.98928 13.8818 7.31809 12.4976H5.59226C5.59226 12.4976 5.59148 12.4976 5.59095 12.4976H3.12443C3.12417 12.4976 3.12417 12.4976 3.12391 12.4976C3.12391 12.4976 3.12364 12.4976 3.12338 12.4976H1.39729ZM26.9292 37.2976C17.3157 37.2976 9.49431 29.1603 9.49431 19.1585C9.49431 9.15675 17.3157 1.01948 26.9292 1.01948C36.543 1.01948 44.3644 9.15675 44.3644 19.1585C44.3644 29.1603 36.5433 37.2976 26.9292 37.2976ZM26.9292 2.38214C18.0378 2.38214 10.8043 9.908 10.8043 19.1582C10.8043 28.4085 18.0378 35.9344 26.9292 35.9344C35.8206 35.9344 43.0544 28.4085 43.0544 19.1582C43.0544 9.908 35.8206 2.38214 26.9292 2.38214ZM26.9292 32.3629C19.9308 32.3629 14.2374 26.4393 14.2374 19.1585C14.2374 11.8777 19.9308 5.95412 26.9292 5.95412C33.9277 5.95412 39.621 11.8777 39.621 19.1585C39.621 26.4393 33.9277 32.3629 26.9292 32.3629ZM26.9292 7.31679C20.6531 7.31679 15.5474 12.629 15.5474 19.1582C15.5474 25.6875 20.6531 30.9997 26.9292 30.9997C33.2053 30.9997 38.311 25.6875 38.311 19.1582C38.311 12.629 33.2053 7.31679 26.9292 7.31679Z" fill="#0A0A0A"/>
</svg>
