<svg width="53" height="41" viewBox="0 0 53 41" fill="none" xmlns="http://www.w3.org/2000/svg">
<path d="M49.4894 40.5001C48.4044 40.5001 47.522 39.5817 47.522 38.4532V2.03854C47.522 1.50645 47.9331 0.500061 49.4894 0.500061C51.9586 0.500061 52.7257 9.62138 52.7257 12.9439C52.7257 18.098 51.63 22.8304 51.4568 23.5457V38.4529C51.4568 39.5817 50.5744 40.5001 49.4894 40.5001ZM48.832 24.1418V38.4532C48.832 38.8302 49.1268 39.1371 49.4894 39.1371C49.852 39.1371 50.1468 38.8305 50.1468 38.4532V24.1418H48.832ZM48.832 22.7789H50.2856C50.5966 21.3726 51.4157 17.2574 51.4157 12.9442C51.4157 7.25368 50.1303 2.35202 49.4386 1.86382C49.0346 1.87281 48.8574 1.98948 48.8323 2.07398V22.7789H48.832ZM4.78625 40.5001C4.2963 40.5001 3.82469 40.3 3.49246 39.9511C3.18723 39.6302 3.02112 39.2121 3.02531 38.774L3.23648 16.4805C1.62934 15.8353 0.465774 14.2216 0.428831 12.3363C0.428307 12.3194 0.428569 12.3023 0.429355 12.2851L0.878695 2.00747C0.895201 1.63184 1.20856 1.34753 1.56253 1.35762C1.9241 1.37479 2.20366 1.69345 2.18715 2.06935L1.76899 11.6344H2.9116L3.12173 2.02301C3.12985 1.64656 3.43823 1.34699 3.79141 1.35708C4.15324 1.3658 4.43961 1.67764 4.43123 2.05381L4.22241 11.6347H5.35061L5.14127 2.05408C5.13314 1.67791 5.41952 1.36607 5.78108 1.35735C6.13689 1.3459 6.44265 1.64684 6.45077 2.02328L6.6609 11.6347H7.80351L7.38561 2.06962C7.3691 1.69372 7.64866 1.37507 8.01023 1.35789C8.36839 1.34372 8.67808 1.63184 8.69406 2.00774L9.14314 12.2851C9.14393 12.3023 9.14419 12.3194 9.14367 12.3363C9.10672 14.2213 7.94316 15.8353 6.33601 16.4805L6.54745 38.774C6.55164 39.2121 6.38553 39.6302 6.08029 39.9511C5.74781 40.3 5.2762 40.5001 4.78625 40.5001ZM4.54363 16.7806L4.33534 38.7871C4.33455 38.879 4.38276 38.9493 4.42337 38.9918C4.59891 39.1764 4.97332 39.1761 5.14939 38.9918C5.19 38.949 5.23821 38.8787 5.23742 38.7871L5.02887 16.7806H4.54363ZM1.82585 12.9976C2.15492 14.3818 3.36592 15.4177 4.78625 15.4177C6.20684 15.4177 7.41783 14.3818 7.74665 12.9976H6.02082C6.02082 12.9976 6.02003 12.9976 6.01951 12.9976H3.55299C3.55273 12.9976 3.55273 12.9976 3.55246 12.9976C3.55246 12.9976 3.5522 12.9976 3.55194 12.9976H1.82585ZM27.3578 37.7976C17.7443 37.7976 9.92287 29.6604 9.92287 19.6586C9.92287 9.65681 17.7443 1.51954 27.3578 1.51954C36.9716 1.51954 44.793 9.65681 44.793 19.6586C44.793 29.6604 36.9718 37.7976 27.3578 37.7976ZM27.3578 2.8822C18.4664 2.8822 11.2329 10.4081 11.2329 19.6583C11.2329 28.9086 18.4664 36.4344 27.3578 36.4344C36.2492 36.4344 43.4829 28.9086 43.4829 19.6583C43.4829 10.4081 36.2492 2.8822 27.3578 2.8822ZM27.3578 32.863C20.3593 32.863 14.666 26.9394 14.666 19.6586C14.666 12.3778 20.3593 6.45418 27.3578 6.45418C34.3562 6.45418 40.0496 12.3778 40.0496 19.6586C40.0496 26.9394 34.3562 32.863 27.3578 32.863ZM27.3578 7.81685C21.0817 7.81685 15.976 13.129 15.976 19.6583C15.976 26.1876 21.0817 31.4998 27.3578 31.4998C33.6339 31.4998 38.7396 26.1876 38.7396 19.6583C38.7396 13.129 33.6339 7.81685 27.3578 7.81685Z" fill="#777777"/>
</svg>
