<svg width="18" height="25" viewBox="0 0 18 25" fill="none" xmlns="http://www.w3.org/2000/svg">
<path d="M14.7947 1H3.20554C1.81343 1 0.680847 2.13263 0.680847 3.5247V21.4758C0.680847 22.8679 1.81343 24 3.20554 24H14.7947C16.1867 24 17.3191 22.8679 17.3191 21.4758V3.5247C17.3191 2.13263 16.1867 1 14.7947 1ZM16.3404 21.4758C16.3404 22.3279 15.647 23.0213 14.7947 23.0213H3.20554C2.35299 23.0213 1.65957 22.3279 1.65957 21.4758V3.5247C1.65957 2.67215 2.35299 1.97872 3.20554 1.97872H14.7947C15.647 1.97872 16.3404 2.67215 16.3404 3.5247V21.4758Z" fill="#BDBDBD" stroke="#BDBDBD" stroke-width="0.6"/>
<path d="M3.617 9.16802H14.383V3.93604H3.617V9.16802ZM4.59572 4.91476H13.4043V8.18925H4.59572V4.91476Z" fill="#BDBDBD" stroke="#BDBDBD" stroke-width="0.6"/>
<path d="M6.08224 13.8782H4.61414V14.8569H6.08224V13.8782Z" fill="#BDBDBD" stroke="#BDBDBD" stroke-width="0.6"/>
<path d="M9.7341 13.8782H8.26599V14.8569H9.7341V13.8782Z" fill="#BDBDBD" stroke="#BDBDBD" stroke-width="0.6"/>
<path d="M13.3861 13.8782H11.918V14.8569H13.3861V13.8782Z" fill="#BDBDBD" stroke="#BDBDBD" stroke-width="0.6"/>
<path d="M6.08224 16.9817H4.61414V17.9604H6.08224V16.9817Z" fill="#BDBDBD" stroke="#BDBDBD" stroke-width="0.6"/>
<path d="M9.7341 16.9817H8.26599V17.9604H9.7341V16.9817Z" fill="#BDBDBD" stroke="#BDBDBD" stroke-width="0.6"/>
<path d="M13.3861 16.9817H11.918V17.9604H13.3861V16.9817Z" fill="#BDBDBD" stroke="#BDBDBD" stroke-width="0.6"/>
<path d="M6.08224 20.0852H4.61414V21.0639H6.08224V20.0852Z" fill="#BDBDBD" stroke="#BDBDBD" stroke-width="0.6"/>
<path d="M9.7341 20.0852H8.26599V21.0639H9.7341V20.0852Z" fill="#BDBDBD" stroke="#BDBDBD" stroke-width="0.6"/>
<path d="M13.3861 20.0852H11.918V21.0639H13.3861V20.0852Z" fill="#BDBDBD" stroke="#BDBDBD" stroke-width="0.6"/>
<path d="M14.0819 11.0337H11.1457V12.0124H14.0819V11.0337Z" fill="#BDBDBD" stroke="#BDBDBD" stroke-width="0.6"/>
<path d="M6.8545 11.0337H3.91833V12.0124H6.8545V11.0337Z" fill="#BDBDBD" stroke="#BDBDBD" stroke-width="0.6"/>
</svg>
