<svg width="17" height="19" viewBox="0 0 17 19" fill="none" xmlns="http://www.w3.org/2000/svg">
<path d="M8.50483 9.05939C10.8437 9.05939 12.7379 6.9947 12.7379 4.46689C12.7379 1.97768 10.8437 -0.000183105 8.50483 -0.000183105C6.17567 -0.000183105 4.26208 2.00662 4.27175 4.48619C4.28141 7.00435 6.166 9.05939 8.50483 9.05939ZM8.50483 7.37098C7.17112 7.37098 6.04036 6.10707 6.04036 4.48619C6.0307 2.9039 7.16146 1.68824 8.50483 1.68824C9.85787 1.68824 10.9693 2.8846 10.9693 4.46689C10.9693 6.08778 9.84821 7.37098 8.50483 7.37098ZM2.47413 18.0321H14.5259C16.1978 18.0321 17 17.5015 17 16.363C17 13.7098 13.685 10.1786 8.50483 10.1786C3.32462 10.1786 0 13.7098 0 16.363C0 17.5015 0.80216 18.0321 2.47413 18.0321ZM2.17453 16.3437C1.94258 16.3437 1.8556 16.2665 1.8556 16.0929C1.8556 14.6167 4.24275 11.867 8.50483 11.867C12.7572 11.867 15.1444 14.6167 15.1444 16.0929C15.1444 16.2665 15.0574 16.3437 14.8255 16.3437H2.17453Z" fill="#1C1C1E"/>
</svg>
