<svg width="29" height="40" viewBox="0 0 29 40" fill="none" xmlns="http://www.w3.org/2000/svg">
<path d="M27.7441 23.4989H27.716C28.3139 22.6996 28.8388 21.6266 28.8181 20.3363C28.79 18.5922 27.7677 16.8858 25.7795 15.2646C26.0281 14.5034 26.0809 13.7529 25.935 13.0176C25.3569 10.1047 22.2574 8.94132 19.4131 8.29458C19.5142 7.95212 19.5691 7.58944 19.5691 7.21381C19.5691 5.7923 18.791 4.55273 17.6465 3.91429C18.7852 1.55654 20.3034 1.29589 20.9141 1.29589C21.6923 1.29589 22.1815 1.46574 22.4645 1.61892C22.6847 1.73805 22.9515 1.71887 23.1499 1.56509C23.5194 1.2787 23.4718 0.699782 23.0621 0.477494C22.6063 0.230064 21.9137 0 20.9141 0C19.696 0 18.5536 0.571575 17.6103 1.65287C17.2927 2.01693 16.8337 2.63058 16.4328 3.49762C16.2538 3.47023 16.0705 3.45572 15.8841 3.45572C14.5021 3.45572 13.296 4.23593 12.6654 5.38677C12.4346 5.12664 12.1796 4.78634 11.9999 4.4012C11.9243 4.23921 11.7863 4.11645 11.6186 4.06211C11.451 4.00785 11.2687 4.02677 11.1153 4.11455C9.21585 5.2012 7.82899 6.64888 6.99311 8.41743C6.27829 9.92991 6.14614 11.3233 6.14368 12.1336C6.08997 12.1549 6.03677 12.1761 5.98705 12.1979C4.34249 12.9167 3.39419 14.2851 3.24442 16.155C3.18461 16.9025 3.26738 17.5846 3.35573 18.0527C2.04698 18.5309 1.13681 19.4452 0.808625 20.6434C0.549568 21.5892 0.683247 22.6154 1.14231 23.499H0.635383C0.44215 23.499 0.259421 23.5886 0.138788 23.7427C0.0182391 23.8967 -0.0269984 24.0983 0.0157824 24.2905L3.16453 38.4197C3.37191 39.3502 4.17018 40 5.10585 40H23.2734C24.209 40 25.0074 39.3502 25.2148 38.4197L28.3635 24.2905C28.4063 24.0983 28.3611 23.8967 28.2405 23.7427C28.1201 23.5885 27.9374 23.4989 27.7441 23.4989ZM15.8841 4.75161C17.2153 4.75161 18.2984 5.85614 18.2984 7.21381C18.2984 8.57147 17.2153 9.67601 15.8841 9.67601C14.5528 9.67601 13.4697 8.57147 13.4697 7.21381C13.4697 5.85614 14.5529 4.75161 15.8841 4.75161ZM5.10602 38.704C4.76758 38.704 4.47888 38.4689 4.40382 38.1324L1.43144 24.7948H3.4878L5.75925 38.3849C5.77772 38.4955 5.80372 38.6017 5.83532 38.704H5.10602V38.704ZM7.37696 38.704C7.26158 38.704 7.07054 38.5174 7.01201 38.1672L4.7769 24.7948H6.84537L8.35575 38.3492C8.36956 38.4727 8.38972 38.5913 8.41572 38.704H7.37696V38.704ZM9.76277 38.704C9.71855 38.6307 9.64823 38.4707 9.61841 38.2029L8.12431 24.7948H10.2009L10.9541 38.3127C10.9618 38.4517 10.9737 38.582 10.9894 38.704H9.76277ZM13.5544 38.704H12.2771C12.2553 38.593 12.2339 38.4397 12.2227 38.2393L11.4737 24.7948H13.5101C13.5109 24.7948 13.5116 24.7949 13.5124 24.7949C13.5135 24.7949 13.5145 24.7948 13.5156 24.7948H13.5544V38.704V38.704ZM16.1568 38.2393C16.1457 38.4397 16.1242 38.5931 16.1025 38.704H14.8251V24.7948H16.9059L16.1568 38.2393ZM18.6169 38.704H17.3901C17.406 38.5821 17.4177 38.4518 17.4254 38.3127L18.1786 24.7948H20.2553L18.7612 38.2029C18.7314 38.4707 18.6612 38.6307 18.6169 38.704ZM21.0027 38.704H19.9638C19.9899 38.5913 20.0101 38.4727 20.0239 38.3492L21.5342 24.7948H23.6026L21.3675 38.1672C21.3091 38.5174 21.1181 38.704 21.0027 38.704ZM23.9757 38.1324C23.9008 38.469 23.612 38.704 23.2735 38.704H22.5441C22.5757 38.6017 22.6017 38.4955 22.6202 38.3849L24.8917 24.7948H26.2384C26.2389 24.7948 26.2394 24.7948 26.24 24.7948C26.2406 24.7948 26.2412 24.7948 26.2419 24.7948H26.9482L23.9757 38.1324ZM25.9988 23.4989H16.2566C17.6852 22.7377 19.5356 21.671 21.2793 20.4235C21.5665 20.2179 21.636 19.8139 21.4345 19.5209C21.2329 19.2279 20.8367 19.1571 20.5495 19.3626C17.5229 21.5281 14.0575 23.1811 13.3751 23.4989H2.68793C2.05655 22.8037 1.79936 21.8439 2.03266 20.9919C2.2968 20.0273 3.14988 19.3519 4.43474 19.0898C5.64158 18.8437 8.83269 18.1585 12.3923 17.1147C12.7295 17.0158 12.9243 16.6568 12.8273 16.3129C12.7303 15.969 12.3787 15.7702 12.0411 15.8693C8.86818 16.7997 5.99247 17.4413 4.58697 17.736C4.39272 16.6695 4.26438 14.3607 6.48771 13.3889C7.34578 13.0139 9.08471 12.6909 10.9257 12.3491L11.5408 12.2346C11.8859 12.17 12.1144 11.8324 12.051 11.4804C11.9876 11.1284 11.6566 10.8954 11.3114 10.9601L10.6981 11.0743C9.5093 11.295 8.36176 11.5082 7.42541 11.7417C7.51182 10.2319 8.13896 7.56525 11.1979 5.57381C11.4275 5.92353 11.6743 6.21156 11.8704 6.41778C12.0073 6.56171 12.1241 6.67446 12.2262 6.765C12.2089 6.91238 12.199 7.06193 12.199 7.21398C12.199 9.2862 13.8521 10.9721 15.8841 10.9721C17.0781 10.9721 18.1409 10.3894 18.8148 9.48879C20.0679 9.76058 21.1048 10.075 21.9422 10.4422C22.101 10.6873 22.0792 10.8635 22.0353 11.0042C21.8774 11.5085 20.8931 12.8952 15.1758 14.8738C14.8436 14.9888 14.6656 15.3568 14.7784 15.6956C14.8682 15.9655 15.1152 16.1355 15.38 16.1355C15.4477 16.1355 15.5166 16.1244 15.5843 16.101C17.6335 15.3918 19.2959 14.6835 20.5254 13.9959C22.0813 13.1257 22.9713 12.2759 23.2459 11.3982C23.2662 11.3335 23.2823 11.2688 23.2959 11.2041C24.077 11.7827 24.5289 12.4649 24.6897 13.2749C24.9234 14.4524 24.3985 15.7525 23.1298 17.1391C22.8904 17.4007 22.9043 17.8108 23.1609 18.0549C23.2834 18.1715 23.4389 18.2292 23.5942 18.2292C23.7641 18.2292 23.9337 18.16 24.0588 18.0233C24.5334 17.5047 24.9216 16.9884 25.2239 16.4758C26.7454 17.7783 27.5273 19.0832 27.5477 20.3577C27.5703 21.7718 26.6547 22.8849 25.9988 23.4989Z" fill="#0A0A0A"/>
</svg>
