<svg width="30" height="40" viewBox="0 0 30 40" fill="none" xmlns="http://www.w3.org/2000/svg">
<path d="M28.609 23.4989H28.581C29.1788 22.6996 29.7038 21.6267 29.6831 20.3363C29.655 18.5922 28.6327 16.8859 26.6445 15.2647C26.8931 14.5034 26.9458 13.7529 26.8 13.0177C26.2219 10.1047 23.1223 8.94138 20.2781 8.29464C20.3791 7.95218 20.4341 7.5895 20.4341 7.21387C20.4341 5.79236 19.656 4.55279 18.5115 3.91435C19.6502 1.5566 21.1684 1.29595 21.7791 1.29595C22.5572 1.29595 23.0464 1.4658 23.3295 1.61898C23.5496 1.73811 23.8165 1.71893 24.0149 1.56515C24.3843 1.27876 24.3367 0.699844 23.927 0.477555C23.4713 0.230125 22.7787 6.10352e-05 21.7791 6.10352e-05C20.561 6.10352e-05 19.4186 0.571636 18.4753 1.65293C18.1577 2.01699 17.6987 2.63064 17.2978 3.49768C17.1187 3.47029 16.9355 3.45578 16.749 3.45578C15.3671 3.45578 14.161 4.23599 13.5304 5.38683C13.2995 5.1267 13.0446 4.7864 12.8649 4.40126C12.7893 4.23927 12.6512 4.11651 12.4836 4.06217C12.3159 4.00791 12.1336 4.02683 11.9803 4.11461C10.0808 5.20126 8.69396 6.64894 7.85808 8.41749C7.14326 9.92997 7.01111 11.3234 7.00865 12.1337C6.95494 12.1549 6.90174 12.1762 6.85201 12.198C5.20745 12.9167 4.25916 14.2851 4.10939 16.1551C4.04958 16.9026 4.13234 17.5846 4.2207 18.0527C2.91195 18.531 2.00178 19.4453 1.67359 20.6435C1.41454 21.5893 1.54821 22.6155 2.00728 23.499H1.50035C1.30712 23.499 1.12439 23.5887 1.00376 23.7427C0.883206 23.8968 0.837969 24.0983 0.88075 24.2905L4.0295 38.4198C4.23688 39.3502 5.03514 40.0001 5.97081 40.0001H24.1384C25.074 40.0001 25.8723 39.3502 26.0797 38.4198L29.2285 24.2905C29.2713 24.0983 29.226 23.8968 29.1055 23.7427C28.9851 23.5886 28.8024 23.4989 28.609 23.4989ZM16.749 4.75167C18.0803 4.75167 19.1634 5.8562 19.1634 7.21387C19.1634 8.57153 18.0803 9.67607 16.749 9.67607C15.4177 9.67607 14.3347 8.57153 14.3347 7.21387C14.3347 5.8562 15.4178 4.75167 16.749 4.75167ZM5.97098 38.7041C5.63255 38.7041 5.34384 38.469 5.26879 38.1325L2.29641 24.7948H4.35277L6.62422 38.3849C6.64268 38.4955 6.66869 38.6018 6.70029 38.7041H5.97098ZM8.24192 38.7041C8.12654 38.7041 7.93551 38.5175 7.87697 38.1672L5.64187 24.7948H7.71034L9.22071 38.3493C9.23452 38.4728 9.25468 38.5913 9.28069 38.7041H8.24192ZM10.6277 38.7041C10.5835 38.6307 10.5132 38.4707 10.4834 38.2029L8.98927 24.7948H11.0659L11.8191 38.3128C11.8268 38.4517 11.8386 38.5821 11.8544 38.7041H10.6277ZM14.4194 38.7041H13.1421C13.1203 38.5931 13.0989 38.4398 13.0877 38.2394L12.3386 24.7948H14.3751C14.3758 24.7948 14.3766 24.795 14.3774 24.795C14.3785 24.795 14.3795 24.7948 14.3806 24.7948H14.4194V38.7041ZM17.0218 38.2394C17.0106 38.4398 16.9892 38.5932 16.9674 38.7041H15.6901V24.7948H17.7709L17.0218 38.2394ZM19.4818 38.7041H18.2551C18.2709 38.5822 18.2827 38.4518 18.2904 38.3128L19.0436 24.7948H21.1203L19.6262 38.2029C19.5964 38.4707 19.5261 38.6307 19.4818 38.7041ZM21.8676 38.7041H20.8288C20.8549 38.5913 20.875 38.4728 20.8889 38.3493L22.3991 24.7948H24.4676L22.2325 38.1672C22.1741 38.5175 21.983 38.7041 21.8676 38.7041ZM24.8407 38.1325C24.7657 38.4691 24.4769 38.7041 24.1385 38.7041H23.4091C23.4407 38.6018 23.4667 38.4955 23.4852 38.3849L25.7567 24.7948H27.1033C27.1038 24.7948 27.1043 24.7949 27.1049 24.7949C27.1056 24.7949 27.1062 24.7948 27.1069 24.7948H27.8132L24.8407 38.1325ZM26.8638 23.4989H17.1216C18.5501 22.7377 20.4006 21.671 22.1442 20.4235C22.4315 20.218 22.501 19.8139 22.2994 19.521C22.0979 19.228 21.7017 19.1572 21.4144 19.3627C18.3879 21.5281 14.9225 23.1812 14.24 23.4989H3.5529C2.92152 22.8037 2.66433 21.844 2.89763 20.992C3.16177 20.0274 4.01484 19.352 5.29971 19.0899C6.50655 18.8437 9.69765 18.1586 13.2573 17.1148C13.5944 17.0158 13.7893 16.6569 13.6923 16.3129C13.5953 15.9691 13.2436 15.7702 12.906 15.8693C9.73315 16.7998 6.85744 17.4414 5.45194 17.7361C5.25769 16.6696 5.12935 14.3607 7.35268 13.389C8.21075 13.0139 9.94968 12.691 11.7907 12.3491L12.4057 12.2347C12.7508 12.1701 12.9793 11.8324 12.916 11.4805C12.8526 11.1284 12.5215 10.8955 12.1764 10.9601L11.5631 11.0743C10.3743 11.2951 9.22673 11.5083 8.29038 11.7418C8.37679 10.2319 9.00393 7.56531 12.0629 5.57387C12.2925 5.92359 12.5392 6.21162 12.7353 6.41784C12.8722 6.56178 12.9891 6.67452 13.0911 6.76506C13.0739 6.91244 13.064 7.06199 13.064 7.21404C13.064 9.28626 14.7171 10.9721 16.749 10.9721C17.9431 10.9721 19.0059 10.3895 19.6797 9.48885C20.9328 9.76064 21.9697 10.075 22.8071 10.4423C22.966 10.6874 22.9442 10.8635 22.9002 11.0043C22.7424 11.5085 21.7581 12.8952 16.0408 14.8739C15.7086 14.9889 15.5306 15.3568 15.6433 15.6957C15.7331 15.9656 15.9802 16.1356 16.245 16.1356C16.3127 16.1356 16.3815 16.1244 16.4492 16.101C18.4985 15.3918 20.1609 14.6836 21.3904 13.996C22.9463 13.1257 23.8362 12.276 24.1109 11.3982C24.1311 11.3335 24.1473 11.2689 24.1609 11.2042C24.942 11.7828 25.3939 12.4649 25.5547 13.2749C25.7884 14.4525 25.2635 15.7526 23.9947 17.1392C23.7553 17.4008 23.7692 17.8108 24.0258 18.055C24.1483 18.1715 24.3039 18.2292 24.4591 18.2292C24.6291 18.2292 24.7987 18.1601 24.9238 18.0233C25.3984 17.5047 25.7865 16.9884 26.0889 16.4759C27.6103 17.7783 28.3923 19.0833 28.4127 20.3578C28.4353 21.7719 27.5197 22.8849 26.8638 23.4989Z" fill="#777777"/>
</svg>
