<svg width="28" height="27" viewBox="0 0 28 27" fill="none" xmlns="http://www.w3.org/2000/svg">
<path d="M24.8889 0.662109H10.6667V5.09898H12.4444V2.43686H24.8889C25.4222 2.43686 25.7778 2.79181 25.7778 3.32423V13.0853C25.7778 13.6178 25.4222 13.9727 24.8889 13.9727H13.3333V20.1843H8.62222L5.33333 22.7577V20.1843H2.66667C2.13333 20.1843 1.77778 19.8294 1.77778 19.297V9.53585C1.77778 9.00343 2.13333 8.64848 2.66667 8.64848H14.2222V6.87373H2.66667C1.15556 6.87373 0 8.02731 0 9.53585V19.297C0 20.8055 1.15556 21.9591 2.66667 21.9591H3.55556V26.4847L9.15556 21.9591H15.1111V15.7475H24.8889C26.4 15.7475 27.5556 14.5939 27.5556 13.0853V3.32423C27.5556 1.8157 26.4 0.662109 24.8889 0.662109Z" fill="#0A0A0A"/>
</svg>
