<svg width="19" height="25" viewBox="0 0 19 25" fill="none" xmlns="http://www.w3.org/2000/svg">
<path d="M9.36904 0C4.21782 0 0.0269775 4.1902 0.0269775 9.34055C0.0269775 11.4696 1.52446 14.6242 4.47787 18.7168C6.63392 21.7044 8.82132 24.1384 8.84312 24.1627L9.36897 24.7462L9.89481 24.1627C9.91669 24.1385 12.104 21.7045 14.2601 18.7168C17.2135 14.6242 18.711 11.4696 18.711 9.34055C18.711 4.1902 14.5202 0 9.36904 0ZM9.36897 22.6199C6.7459 19.5985 1.44271 12.7792 1.44271 9.34055C1.44263 4.97067 4.99841 1.41544 9.36904 1.41544C13.7397 1.41544 17.2954 4.97067 17.2954 9.34055C17.2954 12.7772 11.992 19.5978 9.36897 22.6199Z" fill="#0A0A0A"/>
<path d="M9.36904 12.8577C11.3118 12.8577 12.8867 11.2831 12.8867 9.34062C12.8867 7.39819 11.3118 5.82354 9.36904 5.82354C7.42631 5.82354 5.85141 7.39819 5.85141 9.34062C5.85141 11.2831 7.42631 12.8577 9.36904 12.8577Z" fill="#0A0A0A"/>
</svg>
