<svg width="17" height="17" viewBox="0 0 17 17" fill="none" xmlns="http://www.w3.org/2000/svg">
<path d="M7.03662 13.834C8.43408 13.834 9.74365 13.4121 10.8335 12.6914L14.6831 16.5498C14.938 16.7959 15.2632 16.9189 15.6147 16.9189C16.3442 16.9189 16.8804 16.3477 16.8804 15.627C16.8804 15.293 16.7661 14.9678 16.52 14.7217L12.6968 10.8809C13.4878 9.75586 13.9536 8.39355 13.9536 6.91699C13.9536 3.11133 10.8423 0 7.03662 0C3.23975 0 0.119629 3.11133 0.119629 6.91699C0.119629 10.7227 3.23096 13.834 7.03662 13.834ZM7.03662 11.9883C4.25049 11.9883 1.96533 9.70312 1.96533 6.91699C1.96533 4.13086 4.25049 1.8457 7.03662 1.8457C9.82275 1.8457 12.1079 4.13086 12.1079 6.91699C12.1079 9.70312 9.82275 11.9883 7.03662 11.9883Z" fill="#BDBDBD"/>
</svg>
