<svg width="39" height="45" viewBox="0 0 39 45" fill="none" xmlns="http://www.w3.org/2000/svg">
<path d="M19.8519 5.1814H18.3353V11.1442H19.8519V5.1814Z" fill="#0A0A0A"/>
<path d="M34.6727 16.1862C31.8554 12.9581 28.0963 11.1803 24.0875 11.1803C22.54 11.1803 20.9957 11.4612 19.4924 12.0158C17.9892 11.4612 16.4448 11.1803 14.8971 11.1803C10.8885 11.1803 7.12919 12.9581 4.31201 16.1862C1.5314 19.3723 0 23.5999 0 28.0902C0 32.5805 1.53131 36.808 4.31182 39.9942C7.12909 43.2224 10.8884 45.0001 14.8971 45.0001C16.4447 45.0001 17.989 44.7192 19.4924 44.1646C20.9956 44.7192 22.5399 45.0001 24.0875 45.0001C28.0963 45.0001 31.8554 43.2224 34.6727 39.9942C37.4533 36.808 38.9847 32.5805 38.9847 28.0902C38.9847 23.6 37.4533 19.3723 34.6727 16.1862ZM24.0876 43.5822C22.6422 43.5822 21.1953 43.3007 19.7871 42.7457L19.4926 42.6296L19.198 42.7457C17.7899 43.3008 16.3429 43.5822 14.8975 43.5822C7.51949 43.5822 1.51702 36.6326 1.51702 28.0903C1.51702 19.548 7.51939 12.5984 14.8975 12.5984C15.834 12.5984 16.7712 12.7174 17.6979 12.9516L14.0213 14.9878L14.7942 16.2078L19.8311 13.4184C21.2255 12.8747 22.6573 12.5986 24.0877 12.5986C31.4657 12.5986 37.4683 19.5482 37.4683 28.0905C37.4683 36.6327 31.4656 43.5822 24.0876 43.5822Z" fill="#0A0A0A"/>
<path d="M30.2156 4.31886V0H25.5963C22.9114 0 20.7272 2.04231 20.7272 4.55256V8.87142H25.3465C28.0313 8.87142 30.2156 6.8291 30.2156 4.31886ZM23.316 7.45357L27.0183 3.99199L25.946 2.98942L22.2437 6.45091V4.55256C22.2437 2.8241 23.7477 1.41785 25.5962 1.41785H28.6989V4.31877C28.6989 6.04723 27.195 7.45348 25.3463 7.45348H23.316V7.45357Z" fill="#0A0A0A"/>
<path d="M13.1969 9.92558H17.8297V5.59389C17.8298 3.09068 15.6516 1.05408 12.9742 1.05408H8.34137V5.38568C8.34137 7.88907 10.5196 9.92558 13.1969 9.92558ZM9.85801 2.47202H12.9744C14.8155 2.47202 16.3134 3.87255 16.3134 5.59389V7.5049L12.6111 4.04341L11.5388 5.04598L15.2411 8.50755H13.1971C11.3559 8.50755 9.85801 7.1071 9.85801 5.38568V2.47202V2.47202Z" fill="#0A0A0A"/>
</svg>
