<svg width="40" height="45" viewBox="0 0 40 45" fill="none" xmlns="http://www.w3.org/2000/svg">
<path d="M20.5196 5.1814H19.0029V11.1442H20.5196V5.1814Z" fill="#777777"/>
<path d="M35.3403 16.1862C32.5231 12.9581 28.7639 11.1803 24.7551 11.1803C23.2077 11.1803 21.6633 11.4612 20.16 12.0158C18.6568 11.4612 17.1124 11.1803 15.5648 11.1803C11.5561 11.1803 7.79682 12.9581 4.97964 16.1862C2.19904 19.3723 0.667633 23.5999 0.667633 28.0902C0.667633 32.5805 2.19894 36.808 4.97946 39.9942C7.79672 43.2224 11.556 45.0001 15.5648 45.0001C17.1123 45.0001 18.6566 44.7192 20.16 44.1646C21.6632 44.7192 23.2076 45.0001 24.7551 45.0001C28.7639 45.0001 32.5231 43.2224 35.3403 39.9942C38.121 36.808 39.6524 32.5805 39.6524 28.0902C39.6524 23.6 38.121 19.3723 35.3403 16.1862ZM24.7552 43.5822C23.3098 43.5822 21.863 43.3008 20.4547 42.7457L20.1602 42.6296L19.8657 42.7457C18.4575 43.3008 17.0105 43.5822 15.5651 43.5822C8.18712 43.5822 2.18465 36.6326 2.18465 28.0903C2.18465 19.548 8.18703 12.5984 15.5651 12.5984C16.5017 12.5984 17.4388 12.7174 18.3656 12.9516L14.6889 14.9878L15.4618 16.2078L20.4987 13.4184C21.8931 12.8747 23.3249 12.5986 24.7553 12.5986C32.1333 12.5986 38.1359 19.5482 38.1359 28.0905C38.1359 36.6327 32.1332 43.5822 24.7552 43.5822Z" fill="#777777"/>
<path d="M30.8833 4.31886V0H26.264C23.5791 0 21.3948 2.04231 21.3948 4.55256V8.87142H26.0141C28.6989 8.87142 30.8833 6.8291 30.8833 4.31886ZM23.9836 7.45357L27.686 3.99199L26.6137 2.98942L22.9114 6.45091V4.55256C22.9114 2.8241 24.4153 1.41785 26.2639 1.41785H29.3665V4.31877C29.3665 6.04723 27.8626 7.45348 26.0139 7.45348H23.9836V7.45357Z" fill="#777777"/>
<path d="M13.8645 9.92558H18.4974V5.59389C18.4975 3.09068 16.3192 1.05408 13.6418 1.05408H9.009V5.38568C9.009 7.88907 11.1872 9.92558 13.8645 9.92558ZM10.5256 2.47202H13.642C15.4832 2.47202 16.981 3.87255 16.981 5.59389V7.5049L13.2787 4.04341L12.2064 5.04598L15.9087 8.50755H13.8647C12.0235 8.50755 10.5256 7.1071 10.5256 5.38568V2.47202Z" fill="#777777"/>
<path d="M21.1413 40.4115H19.6247V41.8294H21.1413V40.4115Z" fill="#777777"/>
</svg>
