<svg width="34" height="45" viewBox="0 0 34 45" fill="none" xmlns="http://www.w3.org/2000/svg">
<path d="M33.1956 4.29191C32.9724 3.78677 32.5439 3.38718 32.0198 3.19542C27.1302 1.40694 22.0002 0.500061 16.7723 0.500061C11.5459 0.500061 6.41727 1.40642 1.52883 3.19405C1.00456 3.38572 0.575799 3.78565 0.35269 4.29114C0.129408 4.79696 0.123011 5.35677 0.334796 5.86732L3.00519 12.3061C3.02023 12.3648 3.04349 12.4217 3.07521 12.4749L16.192 44.1011C16.2921 44.3424 16.5288 44.5 16.7914 44.5C16.7915 44.5 16.7915 44.5 16.7916 44.5C17.0543 44.4999 17.2909 44.3422 17.3909 44.1006L33.2144 5.86732C33.4257 5.35685 33.419 4.79739 33.1956 4.29191ZM1.5399 4.80934C1.62331 4.62042 1.77831 4.47645 1.97635 4.40408C6.72103 2.66905 11.6991 1.78934 16.7723 1.78934C21.847 1.78934 26.8264 2.66957 31.5722 4.40554C31.7701 4.47791 31.9251 4.62179 32.0084 4.81054C32.0887 4.99224 32.0912 5.19329 32.0153 5.37671L31.0627 7.6785C26.451 6.1091 21.6467 5.31336 16.7723 5.31336C11.8999 5.31336 7.09757 6.1085 2.48766 7.6766L1.5335 5.37585C1.45734 5.19234 1.45968 4.99113 1.5399 4.80934ZM16.7908 42.1629L4.3977 12.2818C5.73618 10.9213 7.07224 10.172 8.57549 9.9343C8.92912 9.87843 9.17013 9.54803 9.11394 9.19649C9.05766 8.84478 8.72546 8.60506 8.37183 8.6611C6.75655 8.91646 5.27484 9.68495 3.86538 10.9984L2.98306 8.8709C7.43444 7.3658 12.0698 6.60264 16.7723 6.60264C21.4771 6.60264 26.1148 7.36658 30.5683 8.87314L29.4846 11.4914C29.0705 11.4216 28.2136 11.163 26.8135 10.235C26.3263 9.91195 25.8432 9.62049 25.3777 9.36848C25.0633 9.19821 24.6695 9.31373 24.4984 9.62642C24.3271 9.93911 24.4433 10.3305 24.7578 10.5008C25.1894 10.7344 25.6391 11.0059 26.0943 11.3076C27.3906 12.167 28.3363 12.5454 28.9834 12.7027L16.7908 42.1629Z" fill="#0A0A0A"/>
<path d="M15.346 14.2094C15.346 13.8534 15.0557 13.5647 14.6976 13.5647C14.3396 13.5647 14.0493 13.8534 14.0493 14.2094C14.0493 14.9914 13.4095 15.6276 12.623 15.6276C11.8365 15.6276 11.1967 14.9914 11.1967 14.2094C11.1967 13.4274 11.8365 12.7912 12.623 12.7912C12.9811 12.7912 13.2713 12.5025 13.2713 12.1465C13.2713 11.7905 12.9811 11.5019 12.623 11.5019C11.1216 11.5019 9.90005 12.7165 9.90005 14.2094C9.90005 15.7023 11.1216 16.9169 12.623 16.9169C14.1244 16.9169 15.346 15.7023 15.346 14.2094Z" fill="#0A0A0A"/>
<path d="M20.23 25.2542C19.8719 25.2542 19.5817 25.5428 19.5817 25.8988C19.5817 26.6808 18.9418 27.317 18.1554 27.317C17.3689 27.317 16.729 26.6808 16.729 25.8988C16.729 25.1168 17.3689 24.4806 18.1554 24.4806C18.5134 24.4806 18.8037 24.192 18.8037 23.836C18.8037 23.48 18.5134 23.1913 18.1554 23.1913C16.6539 23.1913 15.4324 24.4059 15.4324 25.8988C15.4324 27.3917 16.6539 28.6063 18.1554 28.6063C19.6568 28.6063 20.8783 27.3917 20.8783 25.8988C20.8783 25.5428 20.588 25.2542 20.23 25.2542Z" fill="#0A0A0A"/>
<path d="M20.9215 14.2523C19.8014 14.2523 18.8901 15.1585 18.8901 16.2722C18.8901 17.386 19.8014 18.2921 20.9215 18.2921C22.0416 18.2921 22.9529 17.386 22.9529 16.2722C22.9529 15.1585 22.0416 14.2523 20.9215 14.2523ZM20.9215 17.0028C20.5164 17.0028 20.1867 16.6751 20.1867 16.2722C20.1867 15.8694 20.5164 15.5416 20.9215 15.5416C21.3267 15.5416 21.6563 15.8694 21.6563 16.2722C21.6563 16.6751 21.3267 17.0028 20.9215 17.0028Z" fill="#0A0A0A"/>
<path d="M15.346 21.0855C15.346 19.9717 14.4347 19.0656 13.3146 19.0656C12.1944 19.0656 11.2831 19.9717 11.2831 21.0855C11.2831 22.1993 12.1944 23.1054 13.3146 23.1054C14.4347 23.1054 15.346 22.1993 15.346 21.0855ZM12.5798 21.0855C12.5798 20.6827 12.9094 20.3549 13.3146 20.3549C13.7197 20.3549 14.0493 20.6827 14.0493 21.0855C14.0493 21.4884 13.7197 21.8161 13.3146 21.8161C12.9094 21.8161 12.5798 21.4884 12.5798 21.0855Z" fill="#0A0A0A"/>
<path d="M16.7723 30.7551C15.6521 30.7551 14.7409 31.6612 14.7409 32.7749C14.7409 33.8887 15.6521 34.7948 16.7723 34.7948C17.8924 34.7948 18.8037 33.8887 18.8037 32.7749C18.8037 31.6612 17.8924 30.7551 16.7723 30.7551ZM16.7723 33.5055C16.3671 33.5055 16.0375 33.1778 16.0375 32.7749C16.0375 32.3721 16.3671 32.0444 16.7723 32.0444C17.1774 32.0444 17.507 32.3721 17.507 32.7749C17.507 33.1778 17.1774 33.5055 16.7723 33.5055Z" fill="#0A0A0A"/>
<path d="M20.8882 9.27643C21.2963 9.29723 21.722 9.36006 22.1532 9.46311C22.2042 9.47532 22.2551 9.48108 22.3052 9.48108C22.598 9.48108 22.8636 9.28244 22.935 8.98694C23.0187 8.64073 22.8042 8.29271 22.4561 8.20951C21.9473 8.08797 21.4422 8.01379 20.9545 7.98887C20.5975 7.97116 20.2922 8.24414 20.2738 8.59964C20.2557 8.95522 20.5307 9.2582 20.8882 9.27643Z" fill="#0A0A0A"/>
<path d="M11.1829 9.9172C11.3323 9.93035 11.4807 9.94436 11.6281 9.95828C11.9404 9.98777 12.2633 10.0181 12.5794 10.0393C13.2513 10.0844 13.8379 10.1041 14.36 10.1041C16.1504 10.1041 17.1786 9.87156 18.2527 9.62866L18.2993 9.61809C18.6484 9.53918 18.8671 9.19374 18.7877 8.84658C18.7082 8.49943 18.3608 8.28188 18.0117 8.36096L17.9651 8.37153C16.673 8.66376 15.4526 8.93976 12.6666 8.75298C12.368 8.73296 12.068 8.70468 11.7504 8.67477C11.6004 8.66058 11.4495 8.6464 11.2976 8.63299C10.9407 8.60111 10.6261 8.86343 10.5944 9.21807C10.5627 9.57262 10.8262 9.88557 11.1829 9.9172Z" fill="#0A0A0A"/>
<path d="M18.557 20.9745L19.94 21.6621C20.0331 21.7084 20.132 21.7303 20.2295 21.7303C20.4673 21.7303 20.6962 21.5997 20.8098 21.3738C20.97 21.0553 20.8402 20.6682 20.5199 20.5089L19.1368 19.8213C18.8167 19.6621 18.4272 19.7912 18.267 20.1096C18.1069 20.4281 18.2367 20.8152 18.557 20.9745Z" fill="#0A0A0A"/>
<path d="M18.4453 11.57C18.1251 11.4108 17.7357 11.5398 17.5755 11.8582L16.884 13.2335C16.7238 13.5519 16.8536 13.939 17.1739 14.0983C17.267 14.1446 17.3659 14.1666 17.4633 14.1666C17.7011 14.1666 17.9301 14.0359 18.0437 13.81L18.7352 12.4348C18.8954 12.1164 18.7656 11.7292 18.4453 11.57Z" fill="#0A0A0A"/>
<path d="M26.3774 15.3807L25.6858 13.3179C25.5725 12.9801 25.2054 12.7976 24.8657 12.9102C24.526 13.0228 24.3425 13.3879 24.4557 13.7256L25.1472 15.7885C25.2378 16.0586 25.4907 16.2294 25.7622 16.2294C25.8301 16.2294 25.8993 16.2187 25.9673 16.1961C26.307 16.0835 26.4906 15.7185 26.3774 15.3807Z" fill="#0A0A0A"/>
<path d="M9.62369 17.1916C9.3705 16.9399 8.95998 16.9399 8.70688 17.1916C8.45369 17.4434 8.45369 17.8515 8.70688 18.1032L9.39842 18.7909C9.52497 18.9167 9.69094 18.9797 9.85683 18.9797C10.0227 18.9797 10.1887 18.9168 10.3152 18.7909C10.5684 18.5391 10.5684 18.131 10.3152 17.8793L9.62369 17.1916Z" fill="#0A0A0A"/>
<path d="M8.07213 12.2576C7.75203 12.0984 7.36252 12.2273 7.20234 12.5459L6.5108 13.9211C6.35062 14.2395 6.48046 14.6267 6.80073 14.7859C6.89383 14.8323 6.99272 14.8542 7.09014 14.8542C7.32794 14.8542 7.55693 14.7235 7.67052 14.4977L8.36206 13.1224C8.52224 12.804 8.3924 12.4168 8.07213 12.2576Z" fill="#0A0A0A"/>
<path d="M13.773 25.443L13.0814 24.7554C12.8282 24.5036 12.4177 24.5036 12.1646 24.7554C11.9114 25.0071 11.9114 25.4152 12.1646 25.667L12.8561 26.3546C12.9827 26.4804 13.1487 26.5434 13.3145 26.5434C13.4804 26.5434 13.6464 26.4805 13.773 26.3546C14.0262 26.1029 14.0262 25.6948 13.773 25.443Z" fill="#0A0A0A"/>
<path d="M15.346 29.3369C15.346 28.9809 15.0557 28.6922 14.6976 28.6922H14.0061C13.648 28.6922 13.3578 28.9809 13.3578 29.3369C13.3578 29.6929 13.648 29.9815 14.0061 29.9815H14.6976C15.0557 29.9815 15.346 29.6929 15.346 29.3369Z" fill="#0A0A0A"/>
<path d="M23.6877 18.378C23.3296 18.378 23.0394 18.6666 23.0394 19.0227V19.7103C23.0394 20.0663 23.3296 20.3549 23.6877 20.3549C24.0457 20.3549 24.336 20.0663 24.336 19.7103V19.0227C24.336 18.6666 24.0457 18.378 23.6877 18.378Z" fill="#0A0A0A"/>
<path d="M22.3046 22.5037C21.9466 22.5037 21.6563 22.7923 21.6563 23.1483V23.836C21.6563 24.192 21.9466 24.4806 22.3046 24.4806C22.6626 24.4806 22.9529 24.192 22.9529 23.836V23.1483C22.9529 22.7923 22.6626 22.5037 22.3046 22.5037Z" fill="#0A0A0A"/>
<path d="M22.0715 11.0031C21.8183 10.7514 21.4078 10.7514 21.1547 11.0031C20.9015 11.2549 20.9015 11.663 21.1547 11.9147L21.8462 12.6023C21.9728 12.7282 22.1387 12.7912 22.3046 12.7912C22.4705 12.7912 22.6365 12.7283 22.763 12.6023C23.0162 12.3506 23.0162 11.9425 22.763 11.6907L22.0715 11.0031Z" fill="#0A0A0A"/>
</svg>
