<svg width="43" height="42" viewBox="0 0 43 42" fill="none" xmlns="http://www.w3.org/2000/svg">
<path d="M10.6384 14.8469C10.3878 14.8469 10.1423 14.7306 9.96424 14.5286C9.78616 14.3249 9.68439 14.0442 9.68439 13.7561C9.68439 13.4696 9.78616 13.1891 9.96424 12.9853C10.1423 12.7817 10.3878 12.6653 10.6384 12.6653C10.889 12.6653 11.1358 12.7817 11.3126 12.9853C11.4906 13.1889 11.5924 13.4696 11.5924 13.7561C11.5924 14.0441 11.4906 14.3248 11.3126 14.5286C11.1358 14.7306 10.889 14.8469 10.6384 14.8469Z" fill="#777777"/>
<path d="M21.4568 14.8469C21.2064 14.8469 20.9609 14.7306 20.7828 14.5286C20.6047 14.3249 20.503 14.0442 20.503 13.7561C20.503 13.4696 20.6047 13.1891 20.7828 12.9853C20.9609 12.7817 21.2064 12.6653 21.4568 12.6653C21.7076 12.6653 21.9542 12.7817 22.1324 12.9853C22.3093 13.1889 22.4109 13.4696 22.4109 13.7561C22.4109 14.0441 22.3092 14.3248 22.1324 14.5286C21.9542 14.7306 21.7074 14.8469 21.4568 14.8469Z" fill="#777777"/>
<path d="M32.2753 14.8469C32.0246 14.8469 31.7792 14.7306 31.601 14.5286C31.423 14.3249 31.3213 14.0442 31.3213 13.7561C31.3213 13.4696 31.423 13.1891 31.601 12.9853C31.7791 12.7817 32.0246 12.6653 32.2753 12.6653C32.5271 12.6653 32.7726 12.7817 32.9494 12.9853C33.1274 13.1889 33.2293 13.4696 33.2293 13.7561C33.2293 14.0441 33.1274 14.3248 32.9494 14.5286C32.7728 14.7306 32.5273 14.8469 32.2753 14.8469Z" fill="#777777"/>
<path d="M16.3307 9.3491C16.0801 9.3491 15.8346 9.23275 15.6565 9.03044C15.4784 8.82697 15.3767 8.54627 15.3767 8.2583C15.3767 7.97178 15.4784 7.68963 15.6565 7.48747C15.8333 7.28385 16.0801 7.1675 16.3307 7.1675C16.5825 7.1675 16.828 7.28385 17.0048 7.48747C17.1829 7.68963 17.2847 7.97178 17.2847 8.2583C17.2847 8.54627 17.1829 8.82697 17.0048 9.03044C16.828 9.23275 16.5825 9.3491 16.3307 9.3491Z" fill="#777777"/>
<path d="M26.583 9.3491C26.3323 9.3491 26.087 9.23275 25.9088 9.03044C25.7308 8.82697 25.629 8.54627 25.629 8.2583C25.629 7.97178 25.7308 7.68963 25.9088 7.48747C26.0868 7.28385 26.3323 7.1675 26.583 7.1675C26.8349 7.1675 27.0804 7.28385 27.2572 7.48747C27.4352 7.68963 27.537 7.97178 27.537 8.2583C27.537 8.54627 27.4352 8.82697 27.2572 9.03044C27.0805 9.23275 26.835 9.3491 26.583 9.3491Z" fill="#777777"/>
<path d="M40.1182 32.4241C40.4668 31.7843 40.6695 31.0308 40.6695 30.2232C40.6695 28.7856 40.031 27.5155 39.0616 26.7634C39.7257 25.9468 40.1332 24.8538 40.1332 23.6532C40.1332 22.6045 39.8224 21.638 39.3011 20.8658C41.1403 20.0351 42.4452 17.9838 42.4452 15.5891C42.4452 11.5197 40.1967 7.73603 36.1142 4.93514C32.1842 2.23897 26.9788 0.754166 21.4573 0.754166C15.9355 0.754166 10.7301 2.23897 6.80006 4.93514C2.71743 7.73603 0.469034 11.5197 0.469034 15.5891C0.469034 17.9838 1.77411 20.0351 3.61318 20.8658C3.09191 21.638 2.78103 22.6045 2.78103 23.6532C2.78103 24.8538 3.18909 25.9463 3.85321 26.763C2.88343 27.5151 2.24476 28.7853 2.24476 30.2232C2.24476 31.0308 2.44751 31.7843 2.79617 32.4241C1.65683 32.7607 0.469034 33.6523 0.469034 36.0166C0.469034 38.9001 2.29462 41.2459 4.53869 41.2459H38.3756C40.6197 41.2459 42.4452 38.9001 42.4452 36.0166C42.4452 33.6522 41.2576 32.7607 40.1182 32.4241ZM4.68904 23.6532C4.68904 22.3345 5.62753 21.2616 6.78098 21.2616H36.1333C37.2866 21.2616 38.2251 22.3345 38.2251 23.6532C38.2251 23.902 38.1914 24.142 38.1296 24.3677C37.3586 24.2488 36.9074 23.8658 36.3624 23.4013C35.6108 22.7608 34.6752 21.9633 32.9253 21.9633C31.1754 21.9633 30.2401 22.7605 29.4883 23.4013C28.8292 23.963 28.3085 24.4067 27.1916 24.4067C26.0746 24.4067 25.554 23.963 24.8949 23.4013C24.1431 22.7606 23.2077 21.9633 21.4578 21.9633C19.7079 21.9633 18.7724 22.7605 18.0207 23.4013C17.3615 23.963 16.841 24.4067 15.724 24.4067C14.6067 24.4067 14.0861 23.963 13.4268 23.4013C12.6751 22.7606 11.7395 21.9633 9.98949 21.9633C8.23947 21.9633 7.30391 22.7605 6.55215 23.4011C6.0071 23.8657 5.55566 24.2488 4.78432 24.3676C4.72262 24.1421 4.68904 23.902 4.68904 23.6532ZM36.4068 26.0223C36.3171 26.0358 36.2261 26.0451 36.1334 26.0451H29.4036C29.8926 25.776 30.281 25.4469 30.6289 25.1505C31.2881 24.5888 31.8086 24.1451 32.9257 24.1451C34.0426 24.1451 34.5633 24.5888 35.2224 25.1505C35.5604 25.4387 35.9368 25.7578 36.4068 26.0223ZM24.9801 26.0452H17.936C18.4249 25.7762 18.8134 25.447 19.1613 25.1506C19.8204 24.5889 20.341 24.1452 21.458 24.1452C22.575 24.1452 23.0957 24.5889 23.7549 25.1506C24.1025 25.4469 24.4911 25.7762 24.9801 26.0452ZM13.5123 26.0452H6.78111C6.68787 26.0452 6.59667 26.0359 6.50674 26.0223C6.97738 25.7578 7.3544 25.4389 7.69276 25.1506C8.35204 24.5889 8.87267 24.1452 9.98987 24.1452C11.1071 24.1452 11.6278 24.5889 12.287 25.1506C12.6348 25.4469 13.0234 25.7762 13.5123 26.0452ZM5.8991 28.2268H37.0152C37.9781 28.2268 38.7615 29.1223 38.7615 30.2233C38.7615 31.3243 37.9782 32.2201 37.0152 32.2201H5.8991C4.93619 32.2201 4.15276 31.3244 4.15276 30.2233C4.15276 29.1223 4.93619 28.2268 5.8991 28.2268ZM2.37704 15.5891C2.37704 12.3161 4.2965 9.19684 7.78167 6.8058C11.4195 4.31018 16.2761 2.93577 21.4571 2.93577C26.6379 2.93577 31.4945 4.31018 35.1325 6.8058C38.6178 9.19669 40.5372 12.3161 40.5372 15.5891C40.5372 17.5138 39.1677 19.0799 37.4844 19.0799H5.42986C3.74649 19.0799 2.37704 17.514 2.37704 15.5891ZM38.3756 39.0643H4.53869C3.34669 39.0643 2.37704 37.6972 2.37704 36.0166C2.37704 35.041 2.52752 34.4015 4.53869 34.4015H38.3756C40.3868 34.4015 40.5372 35.041 40.5372 36.0166C40.5372 37.6972 39.5675 39.0643 38.3756 39.0643Z" fill="#777777"/>
</svg>
