<svg width="42" height="41" viewBox="0 0 42 41" fill="none" xmlns="http://www.w3.org/2000/svg">
<path d="M39.6492 31.6699C39.9977 31.0301 40.2005 30.2766 40.2005 29.469C40.2005 28.0315 39.5619 26.7613 38.5925 26.0093C39.2567 25.1926 39.6642 24.0996 39.6642 22.899C39.6642 21.8504 39.3533 20.8838 38.8321 20.1116C40.6713 19.2809 41.9762 17.2296 41.9762 14.8349C41.9762 10.7655 39.7277 6.98187 35.6452 4.18098C31.7152 1.4848 26.5098 0 20.9882 0C15.4665 0 10.261 1.4848 6.33103 4.18098C2.2484 6.98187 0 10.7655 0 14.8349C0 17.2296 1.30508 19.2809 3.14415 20.1116C2.62288 20.8838 2.312 21.8504 2.312 22.899C2.312 24.0996 2.72006 25.1922 3.38417 26.0088C2.4144 26.7609 1.77572 28.0312 1.77572 29.469C1.77572 30.2766 1.97848 31.0301 2.32714 31.6699C1.1878 32.0065 0 32.8982 0 35.2625C0 38.146 1.82558 40.4918 4.06966 40.4918H37.9066C40.1506 40.4918 41.9762 38.146 41.9762 35.2625C41.9762 32.898 40.7885 32.0065 39.6492 31.6699ZM4.22001 22.899C4.22001 21.5803 5.15849 20.5074 6.31195 20.5074H35.6643C36.8176 20.5074 37.7561 21.5803 37.7561 22.899C37.7561 23.1479 37.7224 23.3878 37.6605 23.6136C36.8896 23.4946 36.4384 23.1116 35.8933 22.6471C35.1417 22.0066 34.2062 21.2091 32.4563 21.2091C30.7064 21.2091 29.7711 22.0063 29.0193 22.6471C28.3601 23.2088 27.8395 23.6525 26.7226 23.6525C25.6056 23.6525 25.085 23.2088 24.4258 22.6471C23.6741 22.0064 22.7386 21.2091 20.9887 21.2091C19.2388 21.2091 18.3034 22.0063 17.5517 22.6471C16.8925 23.2088 16.372 23.6525 15.2549 23.6525C14.1377 23.6525 13.6171 23.2088 12.9578 22.6471C12.206 22.0064 11.2705 21.2091 9.52046 21.2091C7.77043 21.2091 6.83487 22.0063 6.08312 22.647C5.53806 23.1115 5.08663 23.4946 4.31528 23.6134C4.25359 23.388 4.22001 23.1479 4.22001 22.899ZM35.9377 25.2681C35.8481 25.2816 35.7571 25.2909 35.6644 25.2909H28.9346C29.4235 25.0219 29.812 24.6927 30.1599 24.3963C30.8191 23.8346 31.3396 23.3909 32.4566 23.3909C33.5736 23.3909 34.0942 23.8346 34.7534 24.3963C35.0913 24.6846 35.4677 25.0037 35.9377 25.2681ZM24.5111 25.2911H17.4669C17.9559 25.022 18.3444 24.6929 18.6923 24.3965C19.3514 23.8348 19.8719 23.391 20.989 23.391C22.1059 23.391 22.6267 23.8348 23.2859 24.3965C23.6335 24.6927 24.0221 25.022 24.5111 25.2911ZM13.0433 25.2911H6.31208C6.21884 25.2911 6.12764 25.2818 6.03771 25.2681C6.50835 25.0037 6.88537 24.6847 7.22372 24.3965C7.883 23.8348 8.40364 23.391 9.52084 23.391C10.638 23.391 11.1588 23.8348 11.818 24.3965C12.1657 24.6927 12.5543 25.022 13.0433 25.2911ZM5.43007 27.4727H36.5461C37.5091 27.4727 38.2925 28.3681 38.2925 29.4691C38.2925 30.5701 37.5092 31.4659 36.5461 31.4659H5.43007C4.46716 31.4659 3.68373 30.5703 3.68373 29.4691C3.68373 28.3681 4.46716 27.4727 5.43007 27.4727ZM1.90801 14.8349C1.90801 11.5619 3.82747 8.44267 7.31264 6.05163C10.9504 3.55602 15.8071 2.18161 20.9881 2.18161C26.1689 2.18161 31.0255 3.55602 34.6634 6.05163C38.1487 8.44252 40.0682 11.5619 40.0682 14.8349C40.0682 16.7597 38.6986 18.3258 37.0154 18.3258H4.96082C3.27745 18.3258 1.90801 16.7598 1.90801 14.8349ZM37.9066 38.3102H4.06966C2.87766 38.3102 1.90801 36.943 1.90801 35.2625C1.90801 34.2868 2.05849 33.6473 4.06966 33.6473H37.9066C39.9177 33.6473 40.0682 34.2868 40.0682 35.2625C40.0682 36.943 39.0984 38.3102 37.9066 38.3102Z" fill="#0A0A0A"/>
</svg>
