<svg width="31" height="31" viewBox="0 0 31 31" fill="none" xmlns="http://www.w3.org/2000/svg">
<g clip-path="url(#clip0_1_270)">
<path d="M11.4238 7.30659C11.4061 7.30129 11.3886 7.29517 11.3707 7.29069C11.3431 7.28369 11.3153 7.27856 11.2875 7.27352C11.276 7.2714 11.2646 7.26852 11.253 7.26663C11.2266 7.2625 11.2002 7.26013 11.1737 7.2576C11.1598 7.25626 11.1462 7.25424 11.1324 7.25331C11.1095 7.25186 11.0868 7.25199 11.0641 7.25177C11.0462 7.25148 11.0282 7.25071 11.0102 7.25112C10.992 7.25166 10.9739 7.2536 10.9559 7.25481C10.9334 7.25642 10.9108 7.25755 10.8883 7.2603C10.8744 7.26191 10.8608 7.2649 10.847 7.26695C10.821 7.27105 10.795 7.27483 10.7691 7.28043C10.7571 7.28302 10.7455 7.28676 10.7335 7.28968C10.7068 7.29626 10.68 7.30267 10.6536 7.31108C10.6332 7.31751 10.6136 7.32565 10.5937 7.33299C10.5764 7.3394 10.559 7.34481 10.542 7.35199C10.504 7.36788 10.4671 7.38572 10.4309 7.40528C10.4307 7.40539 10.4304 7.40548 10.4302 7.40559L4.10247 10.8298C3.50926 11.1508 3.30744 11.8642 3.65174 12.4232C3.99595 12.9821 4.75599 13.175 5.34922 12.854L8.90682 10.9288C8.10513 15.5388 10.5504 20.3133 15.2413 22.495C17.0466 23.3344 19.0173 23.7058 20.9651 23.6156C20.9953 23.6142 21.0256 23.6136 21.0559 23.612C22.8004 23.5183 24.524 23.0533 26.091 22.2206C26.154 22.1871 26.2115 22.1484 26.2655 22.1068C26.4701 21.9493 26.6111 21.739 26.6763 21.5085C26.6864 21.4728 26.6947 21.4367 26.7012 21.4003C26.7464 21.1451 26.702 20.8736 26.5549 20.6305C26.2152 20.069 25.4568 19.8706 24.8609 20.1873C24.4915 20.3837 24.1106 20.5531 23.7219 20.6974C21.3463 21.5789 18.6651 21.4873 16.335 20.4037C12.6312 18.6811 10.7083 14.8959 11.3694 11.2556L13.6519 14.9613C13.9962 15.5203 14.7561 15.7131 15.3494 15.3921C15.646 15.2316 15.8448 14.973 15.9264 14.6846C16.0079 14.3963 15.9724 14.0782 15.8001 13.7988L12.132 7.84346C12.1307 7.84136 12.1293 7.83914 12.128 7.83704L12.1277 7.8364C12.1269 7.83516 12.126 7.83412 12.1252 7.83288C12.1053 7.80061 12.0837 7.76929 12.0605 7.73892C12.0538 7.73015 12.0464 7.7223 12.0395 7.7138C12.0218 7.69183 12.004 7.67 11.9845 7.64921C11.9732 7.63708 11.961 7.62608 11.9492 7.61447C11.9331 7.59863 11.9174 7.58257 11.9003 7.56752C11.8842 7.55338 11.8672 7.54045 11.8505 7.52728C11.8364 7.51604 11.8227 7.50453 11.808 7.49386C11.7861 7.47799 11.7632 7.46373 11.7403 7.44931C11.7294 7.44244 11.719 7.43506 11.7078 7.4285C11.6768 7.41033 11.6449 7.39394 11.6126 7.37849C11.6084 7.37647 11.6046 7.37407 11.6004 7.3721C11.6001 7.37195 11.5997 7.37184 11.5994 7.37169C11.5621 7.35441 11.5241 7.3388 11.4853 7.32517C11.4648 7.31798 11.4442 7.31274 11.4238 7.30659Z" fill="#0A0A0A"/>
</g>
<defs>
<clipPath id="clip0_1_270">
<rect width="24" height="25" fill="white" transform="matrix(0.272204 -0.96224 0.969269 0.246002 0 24)"/>
</clipPath>
</defs>
</svg>
