<svg width="24" height="21" viewBox="0 0 24 21" fill="none" xmlns="http://www.w3.org/2000/svg">
<path d="M20.8397 3.38C20.329 2.869 19.7226 2.46365 19.0551 2.18708C18.3876 1.91052 17.6722 1.76817 16.9497 1.76817C16.2273 1.76817 15.5118 1.91052 14.8444 2.18708C14.1769 2.46365 13.5705 2.869 13.0597 3.38L11.9997 4.44L10.9397 3.38C9.90805 2.34831 8.50877 1.76871 7.04974 1.76871C5.5907 1.76871 4.19143 2.34831 3.15974 3.38C2.12805 4.41169 1.54845 5.81097 1.54845 7.27C1.54845 8.72903 2.12805 10.1283 3.15974 11.16L4.21974 12.22L11.9997 20L19.7797 12.22L20.8397 11.16C21.3507 10.6492 21.7561 10.0428 22.0327 9.37535C22.3092 8.70789 22.4516 7.99249 22.4516 7.27C22.4516 6.54751 22.3092 5.8321 22.0327 5.16464C21.7561 4.49718 21.3507 3.89075 20.8397 3.38V3.38Z" stroke="#BDBDBD" stroke-width="2" stroke-linecap="round" stroke-linejoin="round"/>
</svg>
