<svg width="13" height="16" viewBox="0 0 13 16" fill="none" xmlns="http://www.w3.org/2000/svg">
<path d="M6.04024 0C2.70965 0 0 2.70923 0 6.03927C0 7.41582 0.968218 9.45551 2.87779 12.1016C4.27181 14.0333 5.68611 15.607 5.7002 15.6227L6.0402 16L6.38019 15.6227C6.39433 15.6071 7.80858 14.0333 9.2026 12.1016C11.1122 9.45547 12.0804 7.41582 12.0804 6.03927C12.0804 2.70923 9.37079 0 6.04024 0ZM6.0402 14.6252C4.34421 12.6717 0.915359 8.26259 0.915359 6.03927C0.915313 3.21386 3.21435 0.915172 6.04024 0.915172C8.86613 0.915172 11.1651 3.21386 11.1651 6.03927C11.1651 8.26126 7.73618 12.6712 6.0402 14.6252Z" fill="#0A0A0A"/>
<path d="M6.04027 8.31321C7.29637 8.31321 8.31464 7.29509 8.31464 6.03919C8.31464 4.78328 7.29637 3.76517 6.04027 3.76517C4.78417 3.76517 3.76591 4.78328 3.76591 6.03919C3.76591 7.29509 4.78417 8.31321 6.04027 8.31321Z" fill="#0A0A0A"/>
</svg>
